<svg width="612" height="612" xmlns="http://www.w3.org/2000/svg"><g id="house_body" stroke="green" stroke-width="7.199999999999999" fill="none" stroke-linecap="round">
    <path d="M 186.00 246.00 C 466.00000000000045 206.0 466.00000000000034 206.0 425.99999999999994 485.99999999999994 "/>
    <path d="M 426.00 486.00 C 146.00000000000006 526.0000000000001 146.00000000000003 526.0 186.0 246.0 "/>
</g>
<g id="roof" stroke="green" stroke-width="7.199999999999999" fill="none" stroke-linecap="round">
    <path d="M 186.00 246.00 C 305.9999999999998 53.99999999999997 305.9999999999998 54.0 425.9999999999999 245.9999999999999 "/>
</g>
<g id="door" stroke="green" stroke-width="7.199999999999999" fill="none" stroke-linecap="round">
    <path d="M 282.00 486.00 C 352.0 506.0 352.0 506.0 341.9999999999999 365.9999999999999 "/>
    <path d="M 342.00 366.00 C 272.00000000000006 345.9999999999999 272.0 345.9999999999999 281.99999999999994 486.0 "/>
</g>
<g id="doorknob" stroke="green" stroke-width="7.199999999999999" fill="none" stroke-linecap="round">
    <path d="M 330.00 426.00 L 330.0001 426.0001 "/>
</g>
<g id="window_frame" stroke="green" stroke-width="7.199999999999999" fill="none" stroke-linecap="round">
    <path d="M 210.00 366.00 C 266.0000000000001 374.0000000000001 266.0 374.00000000000006 257.9999999999999 317.9999999999999 "/>
    <path d="M 258.00 318.00 C 202.00000000000006 310.0 202.0 309.99999999999994 210.0 366.0 "/>
</g>
<g id="window_pane_vertical" stroke="green" stroke-width="7.199999999999999" fill="none" stroke-linecap="round">
    <path d="M 234 366 L 234 318 "/>
</g>
<g id="window_pane_horizontal" stroke="green" stroke-width="7.199999999999999" fill="none" stroke-linecap="round">
    <path d="M 210 342 L 258 342 "/>
</g>
<g id="chimney_left" stroke="green" stroke-width="7.199999999999999" fill="none" stroke-linecap="round">
    <path d="M 378 186 L 378 126 "/>
</g>
<g id="chimney_top" stroke="green" stroke-width="7.199999999999999" fill="none" stroke-linecap="round">
    <path d="M 378 126 L 402 126 "/>
</g>
<g id="chimney_right" stroke="green" stroke-width="7.199999999999999" fill="none" stroke-linecap="round">
    <path d="M 402 126 L 402 222 "/>
</g>
<g id="smoke" stroke="green" stroke-width="7.199999999999999" fill="none" stroke-linecap="round">
    <path d="M 390.00 114.00 C 468.6666666666672 80.4761904761905 328.2857142857139 75.52380952380946 426.00000000000045 42.00000000000006 "/>
</g>
</svg>